<svg xmlns="http://www.w3.org/2000/svg" xmlns:xlink="http://www.w3.org/1999/xlink" xml:space="preserve" version="1.1" style="shape-rendering:geometricPrecision;text-rendering:geometricPrecision;image-rendering:optimizeQuality;" viewBox="0 0 100000 125000" x="0px" y="0px" fill-rule="evenodd" clip-rule="evenodd"><defs><style type="text/css">
   
    .fil0 {fill:#999;fill-rule:nonzero}
   
  </style></defs><g><path class="fil0" d="M18991 28784l46752 0c1349,0 2443,1093 2443,2442l0 56313c0,1349 -1094,2443 -2443,2443l-46752 0c-1349,0 -2442,-1094 -2442,-2443l0 -56313c0,-1349 1093,-2442 2442,-2442zm44311 4884l-41870 0 0 51430 41870 0 0 -51430z"/><path class="fil0" d="M34258 10018l46753 0c1349,0 2442,1094 2442,2443l0 56313c0,1349 -1093,2442 -2442,2442l-9542 0 0 -4884 7100 0 0 -51430 -41868 0 0 10598 -4885 0 0 -13039c0,-1349 1093,-2443 2442,-2443z"/></g><text x="0" y="100015" fill="#000000" font-size="5px" font-weight="bold" font-family="'Helvetica Neue', Helvetica, Arial-Unicode, Arial, Sans-serif">Created by syaputraedy</text><text x="0" y="100020" fill="#000000" font-size="5px" font-weight="bold" font-family="'Helvetica Neue', Helvetica, Arial-Unicode, Arial, Sans-serif">from the Noun Project</text></svg>